<svg width="16" height="16" viewBox="0 0 16 16" fill="none" xmlns="http://www.w3.org/2000/svg">
<g id="Layer 2">
<path id="Vector" d="M14.675 0.41687H3.10933C2.94357 0.41687 2.7846 0.482718 2.66739 0.599928C2.55018 0.717138 2.48433 0.87611 2.48433 1.04187C2.48433 1.20763 2.55018 1.3666 2.66739 1.48381C2.7846 1.60102 2.94357 1.66687 3.10933 1.66687H13.4493L0.62496 14.4919C0.562966 14.5489 0.513149 14.6179 0.478503 14.6947C0.443857 14.7715 0.425097 14.8546 0.423352 14.9388C0.421607 15.023 0.436912 15.1067 0.468347 15.1849C0.499782 15.2631 0.546699 15.3341 0.606276 15.3937C0.665854 15.4533 0.736863 15.5002 0.815034 15.5316C0.893206 15.563 0.976927 15.5783 1.06116 15.5766C1.1454 15.5749 1.22842 15.5561 1.30522 15.5215C1.38202 15.4868 1.45103 15.437 1.50808 15.375L14.3331 2.55V12.8906C14.3331 13.0564 14.3989 13.2154 14.5161 13.3326C14.6334 13.4498 14.7923 13.5156 14.9581 13.5156C15.1238 13.5156 15.2828 13.4498 15.4 13.3326C15.5172 13.2154 15.5831 13.0564 15.5831 12.8906V1.32562C15.5828 1.08481 15.487 0.853957 15.3168 0.683622C15.1466 0.513288 14.9158 0.417366 14.675 0.41687Z" fill="#202020"/>
</g>
</svg>
